<svg width="80" height="50" viewBox="0 0 80 50" fill="none" xmlns="http://www.w3.org/2000/svg">
<path d="M50.7942 0.960959C50.0304 0.940065 49.362 1.26044 49.0183 2.18672C48.4327 3.73982 49.8903 5.25809 50.4123 6.05205C50.7751 6.60225 51.2461 7.2221 51.5071 7.84194C51.679 8.25285 51.7044 8.66376 51.8508 9.09557C52.2136 10.1611 52.7929 11.373 53.2575 12.3619C53.493 12.8634 53.754 13.3857 54.0532 13.8315C54.2378 14.1031 54.5497 14.2284 54.6006 14.6463C54.2951 15.1199 54.276 15.8512 54.1041 16.4501C53.3276 19.1315 53.6204 22.4675 54.747 24.4455C55.0971 25.0583 55.9182 26.3607 57.0385 25.8662C58.0187 25.4275 57.8023 24.0694 58.0823 22.8645C58.146 22.5998 58.1078 22.3979 58.2351 22.2168V22.2725C58.5279 22.9272 58.8271 23.5819 59.1262 24.2296C59.7946 25.3996 60.9721 26.6184 61.9651 27.4472C62.4807 27.872 62.8881 28.6103 63.5564 28.861V28.8053H63.5055C63.3782 28.5824 63.1745 28.4919 63.009 28.3178C62.6207 27.8999 62.1879 27.3775 61.8696 26.897C60.9594 25.5528 60.1574 24.0763 59.4318 22.5441C59.0817 21.8129 58.7762 21.005 58.4834 20.2598C58.3688 19.9672 58.3688 19.5354 58.1333 19.3822C57.8086 19.9324 57.3376 20.3712 57.0894 21.0189C56.6947 22.0496 56.6375 23.3102 56.4911 24.6126C56.4019 24.6474 56.4401 24.6196 56.3956 24.6683C55.7018 24.4803 55.4535 23.7002 55.1989 23.0316C54.5497 21.3393 54.4224 18.6092 55.0016 16.666C55.148 16.1576 55.8163 14.5697 55.549 14.1031C55.4217 13.6365 54.9889 13.3718 54.7534 13.0166C54.4542 12.5778 54.1614 11.9998 53.9577 11.4914C53.423 10.1681 52.9202 8.63591 52.3537 7.29871C52.0863 6.65797 51.6344 6.01723 51.2589 5.44614C50.8451 4.81932 50.3868 4.35966 50.0622 3.59356C49.954 3.32891 49.7949 2.89711 49.9667 2.61853C50.0177 2.43048 50.094 2.35387 50.2659 2.29119C50.5523 2.04743 51.3543 2.3678 51.6599 2.50709C52.4555 2.86925 53.1239 3.21748 53.7986 3.70499C54.1232 3.94179 54.4478 4.39449 54.8425 4.52681H55.288C55.9946 4.70093 56.7775 4.57557 57.4267 4.79843C58.5852 5.18148 59.6227 5.78043 60.5584 6.42814C63.4291 8.40607 65.7779 11.2267 67.3755 14.5906C67.6365 15.1338 67.7511 15.6562 67.9802 16.2273C68.4321 17.3834 69.0114 18.5813 69.4697 19.7096C69.9216 20.8448 70.3672 21.98 71.01 22.9202C71.3474 23.4147 72.6586 23.6863 73.2506 23.9579C73.6643 24.1529 74.3518 24.3549 74.74 24.6126C75.4975 25.1071 76.2231 25.6991 76.9297 26.2493C77.2861 26.5209 78.3682 27.1129 78.4255 27.6074C76.6751 27.5586 75.3384 27.7327 74.199 28.262C73.8744 28.4153 73.3524 28.4153 73.3015 28.861C73.4734 29.063 73.5052 29.3694 73.6452 29.6201C73.9189 30.1007 74.3772 30.7484 74.791 31.0896C75.2429 31.4588 75.7012 31.8557 76.1849 32.1831C77.0379 32.7472 77.9927 33.0745 78.8201 33.6456C79.3039 33.9869 79.794 34.4117 80.265 34.7878C80.5005 34.9828 80.6533 35.2753 80.9588 35.3937V35.338C80.7997 35.1152 80.7615 34.8087 80.6151 34.5789L79.9595 33.8615C79.3294 32.9492 78.5273 32.1413 77.6744 31.4727C76.9933 30.9364 75.472 30.2121 75.192 29.3485L75.1411 29.2928C75.6184 29.2371 76.1849 29.0421 76.6305 28.9097C77.3816 28.6938 78.0436 28.7496 78.8138 28.5337C79.1639 28.4222 79.5139 28.3108 79.864 28.2063V27.9835C79.4757 27.5516 79.1957 26.9666 78.7692 26.5696C77.6553 25.5319 76.4396 24.4942 75.1856 23.6306C74.4918 23.15 73.6325 22.8366 72.9005 22.4327C72.6523 22.2934 72.2194 22.2238 72.0539 21.9939C71.6657 21.4577 71.4556 20.7751 71.1564 20.1483C70.5327 18.832 69.9216 17.3973 69.3678 16.0114C68.9923 15.0712 68.744 14.1379 68.273 13.2882C66.0134 9.22789 63.5819 6.7694 59.8137 4.35966C59.0117 3.84429 58.0505 3.64928 57.0321 3.38463C56.4783 3.34284 55.9373 3.30802 55.3835 3.27319C55.0525 3.11997 54.7024 2.67424 54.3905 2.45138C53.6076 1.9151 52.0672 0.981853 50.7942 0.960959ZM56.1855 6.86691C55.8227 6.85994 55.5617 6.91566 55.288 6.97834V7.03406H55.339C55.5108 7.42407 55.8227 7.67479 56.0391 8.00909C56.2046 8.39215 56.3637 8.77519 56.5292 9.15825L56.5802 9.10253C56.8857 8.86574 57.0321 8.48268 57.0321 7.90463C56.9048 7.76533 56.8857 7.58426 56.7838 7.41711C56.6375 7.18728 56.3637 7.06191 56.1855 6.86691ZM3.04893 29.4808C2.55881 29.5017 2.02413 29.6062 1.4449 29.8082C0.477388 30.1285 0 30.7623 0 32.0508V45.5341H3.26534V32.3781L7.79099 43.6259C8.35113 45.0257 9.11495 45.5272 10.6108 45.5272C12.113 45.5272 12.845 45.0257 13.4051 43.6259L17.9307 32.6636V45.5341H21.1897V32.0508C21.1897 30.7623 20.7187 30.1285 19.7448 29.8082C17.4279 29.0072 15.8684 29.6967 15.1682 31.4309L10.5217 42.8667L6.02783 31.4309C5.51862 30.1285 4.50019 29.4182 3.04893 29.4808ZM42.7741 29.4878C41.4883 29.4878 37.4846 29.6549 37.4846 33.0537V35.2545C37.4846 36.8145 38.7385 38.089 41.4565 38.4024C41.762 38.4233 42.0675 38.4512 42.3731 38.4512C42.3731 38.4512 45.5429 38.3815 45.632 38.4024C47.4652 38.4024 47.2615 39.9625 47.2615 40.1854V41.9683C47.2615 42.212 47.2106 43.7512 45.6129 43.7512H37.4846V45.5341H45.6448C46.7141 45.5341 47.7516 45.2904 48.5791 44.8655C49.954 44.1761 50.5205 43.2428 50.5205 42.017V39.468C50.5205 36.7309 47.4143 36.6195 45.632 36.6195H42.3731C41.0937 36.6195 40.8963 35.7698 40.7436 34.8366V33.0537C40.8963 32.3433 41.1828 31.3822 42.3158 31.2707H50.5205V29.4878H42.7741ZM55.3771 29.4878C52.9711 29.85 52.1245 31.1593 52.1245 33.0537V41.9683C52.1245 43.7025 53.0093 44.7471 54.8297 45.2904C55.4408 45.4784 55.9946 45.555 56.5165 45.555L60.1447 45.5341H62.277L64.0911 47.3171H67.7574L65.2368 44.8307C66.4207 44.2945 66.7899 43.4726 66.7899 41.9335V33.0537C66.7899 31.1593 65.6633 29.85 63.2572 29.4878H55.3771ZM68.4449 29.4878V41.8917C68.4449 44.0437 69.5588 45.2556 72.5059 45.4993C72.7796 45.5132 73.0596 45.5341 73.3333 45.5341H81.4808V43.7512H73.9508C72.2704 43.7512 71.7039 42.9781 71.7039 41.8777V29.4878H68.4449ZM57.3185 31.2707H61.5132C62.6207 31.2707 63.3655 32.2458 63.531 33.0537C63.531 33.0537 63.5564 41.3554 63.5564 41.9683C63.5564 42.5812 63.2445 42.8598 63.2445 42.8598L62.3598 41.9683H58.6679L60.482 43.7512H57.3185C56.1855 43.7512 55.549 42.8319 55.3835 41.9683V33.2347C55.3835 32.2876 56.0455 31.2707 57.3185 31.2707ZM22.8192 34.8366C22.8829 34.9062 22.8192 42.4349 22.8192 42.5812C22.8447 44.1412 24.6524 45.5063 27.4849 45.5341H32.5961V45.6525C32.5961 45.9868 32.8189 47.1012 30.9666 47.3171C30.9475 47.3171 22.8383 47.3171 22.8192 47.3171V49.1H31.3167C32.7553 49.0512 35.8742 48.6961 35.8551 45.9659C35.8551 45.9172 35.8678 34.8366 35.8551 34.8366H32.5961V43.7512C32.5452 43.7512 28.5606 43.7651 27.7586 43.7512C26.1864 43.7234 26.0527 42.7414 26.0782 42.3653V34.8366H22.8192Z" fill="white"/>
</svg>
